<svg xmlns="http://www.w3.org/2000/svg"  viewBox="0 0 100 100" width="100px" height="100px"><path fill="#c7ede6" d="M88.724,55.551c0.3-0.616,0.566-1.264,0.796-1.943c2.633-7.77-1.349-17.078-9.733-19.325C78.881,22.9,70.881,15.09,61.846,13.758c-10.341-1.525-19.814,5.044-22.966,15.485c-3.799-1.346-7.501-1.182-10.99,0.857c-1.583,0.732-3.031,1.812-4.33,3.233c-1.907,2.086-3.147,4.719-3.652,7.495c-0.748,0.118-1.483,0.236-2.176,0.484c-4.04,1.449-6.589,4.431-7.288,8.923c-0.435,2.797,0.443,5.587,0.933,6.714c1.935,4.455,6.422,6.98,10.981,6.312c0.227-0.033,0.557,0.069,0.752,0.233c0.241,7.12,3.698,13.417,8.884,17.014c8.321,5.772,19.027,3.994,25.781-3.921c2.894,2.96,6.338,4.398,10.384,3.876c4.023-0.519,7.147-2.739,9.426-6.349c1.053,0.283,2.051,0.691,3.083,0.804c4.042,0.442,7.324-1.165,9.732-4.8c0.922-1.391,1.794-3.194,1.793-6.354C92.194,60.508,90.901,57.54,88.724,55.551z"/><path fill="#fdfcef" d="M70.988,51.72c0,0,11.691,0,11.762,0c2.7,0,4.888-2.189,4.888-4.889c0-2.355-1.666-4.321-3.884-4.784c0.026-0.206,0.043-0.415,0.043-0.628c0-2.796-2.267-5.063-5.063-5.063c-1.651,0-3.113,0.794-4.037,2.017c-0.236-3.113-3.017-5.514-6.27-5.116c-2.379,0.291-4.346,2.13-4.784,4.486c-0.14,0.756-0.126,1.489,0.014,2.177c-0.638-0.687-1.546-1.119-2.557-1.119c-1.85,0-3.361,1.441-3.48,3.261c-0.84-0.186-1.754-0.174-2.717,0.188c-1.84,0.691-3.15,2.423-3.227,4.387c-0.109,2.789,2.12,5.085,4.885,5.085c0.21,0,0.948,0,1.118,0h10.151"/><path fill="#472b29" d="M82.75,52.22H70.988c-0.276,0-0.5-0.224-0.5-0.5s0.224-0.5,0.5-0.5H82.75c2.419,0,4.388-1.969,4.388-4.389c0-2.067-1.466-3.873-3.486-4.295c-0.255-0.053-0.427-0.294-0.394-0.553c0.023-0.186,0.039-0.373,0.039-0.564c0-2.517-2.047-4.563-4.562-4.563c-1.439,0-2.766,0.663-3.639,1.818c-0.125,0.165-0.342,0.237-0.539,0.178c-0.2-0.059-0.342-0.234-0.358-0.441c-0.104-1.377-0.778-2.671-1.85-3.549c-1.083-0.888-2.457-1.28-3.86-1.109c-2.166,0.266-3.956,1.943-4.354,4.081c-0.123,0.669-0.119,1.338,0.014,1.986c0.045,0.219-0.062,0.441-0.262,0.544c-0.197,0.104-0.442,0.061-0.595-0.104c-0.575-0.618-1.353-0.959-2.19-0.959c-1.569,0-2.879,1.227-2.981,2.793c-0.01,0.146-0.082,0.28-0.199,0.367c-0.116,0.088-0.269,0.119-0.407,0.089c-0.844-0.186-1.639-0.131-2.434,0.167c-1.669,0.628-2.836,2.21-2.902,3.938c-0.048,1.207,0.386,2.35,1.221,3.218c0.835,0.869,1.959,1.348,3.164,1.348h11.269c0.276,0,0.5,0.224,0.5,0.5s-0.224,0.5-0.5,0.5H56.563c-1.479,0-2.859-0.588-3.885-1.654c-1.025-1.065-1.558-2.469-1.5-3.95c0.083-2.125,1.51-4.068,3.551-4.835c0.801-0.301,1.629-0.4,2.468-0.299c0.377-1.822,1.997-3.182,3.905-3.182c0.684,0,1.354,0.18,1.943,0.51c0-0.385,0.035-0.771,0.107-1.159c0.476-2.562,2.62-4.573,5.215-4.891c1.675-0.204,3.32,0.266,4.615,1.328c1.004,0.823,1.716,1.95,2.038,3.192c1.012-0.915,2.319-1.425,3.714-1.425c3.067,0,5.562,2.496,5.562,5.563c0,0.083-0.002,0.166-0.007,0.248c2.255,0.673,3.848,2.776,3.848,5.164C88.138,49.803,85.721,52.22,82.75,52.22z"/><path fill="#fdfcef" d="M68.155,40.951c-1.808-0.119-3.365,1.13-3.476,2.789c-0.014,0.206-0.005,0.409,0.025,0.606c-0.349-0.394-0.865-0.661-1.458-0.7c-1.085-0.071-2.022,0.645-2.158,1.62c-0.197-0.054-0.403-0.09-0.616-0.104c-1.582-0.104-2.944,0.989-3.042,2.441"/><path fill="#472b29" d="M57.43,47.853c-0.006,0-0.011,0-0.017-0.001c-0.138-0.009-0.242-0.128-0.232-0.266c0.106-1.586,1.562-2.779,3.308-2.674c0.136,0.009,0.272,0.026,0.408,0.053c0.274-0.968,1.248-1.65,2.366-1.567c0.425,0.027,0.823,0.159,1.163,0.382c0.001-0.02,0.002-0.038,0.004-0.057c0.119-1.794,1.788-3.155,3.741-3.021c0.138,0.009,0.242,0.128,0.232,0.266c-0.008,0.137-0.111,0.27-0.266,0.232c-1.666-0.113-3.108,1.037-3.21,2.557c-0.013,0.183-0.005,0.368,0.023,0.552c0.017,0.109-0.04,0.218-0.141,0.265c-0.102,0.045-0.221,0.021-0.294-0.061c-0.323-0.365-0.78-0.584-1.286-0.617c-0.943-0.036-1.776,0.556-1.895,1.404c-0.011,0.071-0.051,0.135-0.11,0.175s-0.136,0.051-0.203,0.032c-0.188-0.051-0.378-0.083-0.567-0.097c-1.457-0.088-2.688,0.897-2.776,2.209C57.67,47.752,57.561,47.853,57.43,47.853z"/><path fill="#fdfcef" d="M84.729,42.62c-1.699-0.801-3.664-0.234-4.389,1.267c-0.09,0.186-0.157,0.379-0.201,0.574"/><path fill="#472b29" d="M80.14,44.711c-0.018,0-0.036-0.002-0.055-0.006c-0.135-0.03-0.22-0.164-0.189-0.299c0.049-0.215,0.122-0.426,0.219-0.627c0.784-1.622,2.904-2.24,4.722-1.386c0.125,0.06,0.179,0.208,0.12,0.333c-0.06,0.126-0.21,0.177-0.333,0.12c-1.573-0.743-3.394-0.225-4.059,1.149c-0.08,0.167-0.141,0.342-0.181,0.52C80.358,44.632,80.254,44.711,80.14,44.711z"/><path fill="#fff" d="M18.389 47.587H8.359c-.276 0-.5-.224-.5-.5s.224-.5.5-.5h10.03c.276 0 .5.224.5.5S18.665 47.587 18.389 47.587zM21.27 47.587h-1.445c-.276 0-.5-.224-.5-.5s.224-.5.5-.5h1.445c.276 0 .5.224.5.5S21.546 47.587 21.27 47.587zM25.325 47.587h-2.546c-.276 0-.5-.224-.5-.5s.224-.5.5-.5h2.546c.276 0 .5.224.5.5S25.601 47.587 25.325 47.587zM25.325 49.452h-9.616c-.276 0-.5-.224-.5-.5s.224-.5.5-.5h9.616c.276 0 .5.224.5.5S25.601 49.452 25.325 49.452zM13.977 49.452h-.58c-.276 0-.5-.224-.5-.5s.224-.5.5-.5h.58c.276 0 .5.224.5.5S14.253 49.452 13.977 49.452zM11.6 49.452h-1.456c-.276 0-.5-.224-.5-.5s.224-.5.5-.5H11.6c.276 0 .5.224.5.5S11.876 49.452 11.6 49.452zM20.736 45.722h-5.027c-.276 0-.5-.224-.5-.5s.224-.5.5-.5h5.027c.276 0 .5.224.5.5S21.012 45.722 20.736 45.722zM20.736 43.857h-1.257c-.276 0-.5-.224-.5-.5s.224-.5.5-.5h1.257c.276 0 .5.224.5.5S21.012 43.857 20.736 43.857zM17.467 51.316h-1.759c-.276 0-.5-.224-.5-.5s.224-.5.5-.5h1.759c.276 0 .5.224.5.5S17.744 51.316 17.467 51.316zM71.567 21.31h-10.03c-.276 0-.5-.224-.5-.5s.224-.5.5-.5h10.03c.276 0 .5.224.5.5S71.843 21.31 71.567 21.31zM74.448 21.31h-1.445c-.276 0-.5-.224-.5-.5s.224-.5.5-.5h1.445c.276 0 .5.224.5.5S74.724 21.31 74.448 21.31zM78.502 21.31h-2.546c-.276 0-.5-.224-.5-.5s.224-.5.5-.5h2.546c.276 0 .5.224.5.5S78.779 21.31 78.502 21.31zM76.477 17.58h-9.616c-.276 0-.5-.224-.5-.5s.224-.5.5-.5h9.616c.276 0 .5.224.5.5S76.753 17.58 76.477 17.58zM65.129 17.58h-.58c-.276 0-.5-.224-.5-.5s.224-.5.5-.5h.58c.276 0 .5.224.5.5S65.406 17.58 65.129 17.58zM62.752 17.58h-1.456c-.276 0-.5-.224-.5-.5s.224-.5.5-.5h1.456c.276 0 .5.224.5.5S63.029 17.58 62.752 17.58zM73.913 19.445h-5.027c-.276 0-.5-.224-.5-.5s.224-.5.5-.5h5.027c.276 0 .5.224.5.5S74.19 19.445 73.913 19.445z"/><path fill="#fff" d="M73.913 17.58h-1.257c-.276 0-.5-.224-.5-.5s.224-.5.5-.5h1.257c.276 0 .5.224.5.5S74.19 17.58 73.913 17.58zM67.431 19.445h-1.759c-.276 0-.5-.224-.5-.5s.224-.5.5-.5h1.759c.276 0 .5.224.5.5S67.707 19.445 67.431 19.445z"/><path fill="#f1bc19" d="M53.445 69.809L53.445 74.522 55.33 72.951 57.215 74.522 57.215 69.809z"/><path fill="#472b29" d="M53.445 75.022c-.072 0-.145-.016-.212-.047-.176-.083-.288-.259-.288-.453v-4.713c0-.276.224-.5.5-.5h3.771c.276 0 .5.224.5.5v4.713c0 .194-.112.37-.288.453-.175.081-.383.057-.532-.069l-1.564-1.304-1.565 1.304C53.673 74.983 53.559 75.022 53.445 75.022zM53.945 70.309v3.146l1.065-.888c.186-.154.455-.154.641 0l1.064.888v-3.146H53.945zM38.701 67.042c-.207 0-.375-.168-.375-.375v-1.885c0-.207.168-.375.375-.375s.375.168.375.375v1.885C39.076 66.874 38.908 67.042 38.701 67.042zM38.701 68.927c-.207 0-.375-.168-.375-.375v-.629c0-.207.168-.375.375-.375s.375.168.375.375v.629C39.076 68.759 38.908 68.927 38.701 68.927z"/><path fill="#8889b9" d="M37.1,31.398c-0.945,0-1.782-0.518-2.36-1.322v36.823c0,1.838,1.49,3.328,3.328,3.328H62.39c3.111,0,5.656-2.545,5.656-5.656V31.398H37.1z"/><path fill="#472b29" d="M62.39,70.926H38.067c-2.221,0-4.027-1.807-4.027-4.027V30.076c0-0.304,0.196-0.573,0.485-0.666c0.293-0.096,0.606,0.011,0.783,0.258c0.478,0.664,1.114,1.03,1.792,1.03h30.945c0.387,0,0.7,0.313,0.7,0.7v33.173C68.745,68.075,65.894,70.926,62.39,70.926z M35.44,31.647v35.252c0,1.448,1.179,2.627,2.627,2.627H62.39c2.732,0,4.955-2.223,4.955-4.955V32.098H37.1C36.519,32.098,35.953,31.941,35.44,31.647z"/><path fill="#666aad" d="M38.701,69.495h-1.025c-1.26,0-2.282-1.022-2.282-2.282V26.762h3.307V69.495z"/><path fill="#472b29" d="M38.701,63.9c-0.207,0-0.375-0.168-0.375-0.375V27.076c0-0.207,0.168-0.375,0.375-0.375s0.375,0.168,0.375,0.375v36.449C39.076,63.732,38.908,63.9,38.701,63.9z"/><path fill="#fdfcef" d="M37.529,25.457c-1.677,0-3.037,1.323-3.037,2.98c0,1.646,1.357,2.98,3.037,2.98h30.517c0,0-1.017-1.568-1.017-3.032c0-1.464,1.017-2.927,1.017-2.927H37.529L37.529,25.457z"/><path fill="#472b29" d="M68.045 32.016H37.529c-2.005 0-3.636-1.605-3.636-3.58 0-1.974 1.631-3.579 3.636-3.579h30.517c.223 0 .428.124.531.321s.089.437-.038.62c-.009.013-.91 1.333-.91 2.586 0 1.056.665 2.312.921 2.706.119.185.128.42.023.612C68.467 31.896 68.265 32.016 68.045 32.016zM37.529 26.056c-1.344 0-2.437 1.067-2.437 2.38s1.093 2.381 2.437 2.381h29.516c-.297-.646-.615-1.546-.615-2.433 0-.865.302-1.712.593-2.328H37.529zM38.701 68.298c-.207 0-.375-.168-.375-.375v-3.142c0-.207.168-.375.375-.375s.375.168.375.375v3.142C39.076 68.131 38.908 68.298 38.701 68.298z"/><path fill="#472b29" d="M67.088 27.226H39.318c-.083 0-.15-.067-.15-.15s.067-.15.15-.15h27.771c.083 0 .15.067.15.15S67.171 27.226 67.088 27.226zM67.129 28.577H37.047c-.083 0-.15-.067-.15-.15s.067-.15.15-.15h30.082c.083 0 .15.067.15.15S67.212 28.577 67.129 28.577zM67.088 29.986H39.318c-.083 0-.15-.067-.15-.15s.067-.15.15-.15h27.771c.083 0 .15.067.15.15S67.171 29.986 67.088 29.986z"/><path fill="#5058a0" d="M48.403 41.791h1.403v5.913h-1.379l-.072-.863c-.336.695-1.259 1.031-1.919 1.043-1.751.012-3.046-1.067-3.046-3.142 0-2.039 1.354-3.106 3.082-3.095.791 0 1.547.372 1.883.959L48.403 41.791zM44.853 44.743c0 1.127.779 1.799 1.751 1.799 2.303 0 2.303-3.586 0-3.586C45.633 42.955 44.853 43.615 44.853 44.743zM52.39 39.321v3.274c.348-.611 1.319-.947 1.942-.947 1.728 0 3.011 1.056 3.011 3.095 0 1.942-1.308 3.094-3.047 3.094-.72 0-1.451-.24-1.906-.947l-.097.815h-1.367v-8.384H52.39zM52.485 44.743c0 1.067.791 1.738 1.715 1.738.936 0 1.679-.707 1.679-1.738 0-1.067-.743-1.728-1.679-1.728C53.276 43.015 52.485 43.71 52.485 44.743zM63.499 46.949c-.684.672-1.403.936-2.278.936-1.715 0-3.143-1.031-3.143-3.13s1.428-3.131 3.143-3.131c.839 0 1.487.24 2.135.876l-.924.972c-.348-.312-.779-.468-1.188-.468-.983 0-1.703.72-1.703 1.751 0 1.127.768 1.727 1.68 1.727.468 0 .936-.132 1.295-.491L63.499 46.949z"/><g><path fill="#d3d5ea" d="M45.501 54.343L76.07 57.556 70.72 64.006 71.902 70.075 65.515 69.432 61.97 72.824z"/><path fill="#472b29" d="M61.969,73.374c-0.007,0-0.015,0-0.021,0c-0.149-0.006-0.29-0.072-0.389-0.184L45.09,54.71c-0.151-0.17-0.183-0.415-0.079-0.617c0.104-0.201,0.312-0.316,0.547-0.296l30.569,3.213c0.201,0.021,0.375,0.151,0.452,0.34c0.076,0.188,0.043,0.402-0.087,0.559l-5.183,6.248l1.133,5.813c0.033,0.171-0.017,0.348-0.134,0.476c-0.116,0.13-0.298,0.198-0.461,0.177l-6.136-0.617l-3.363,3.217C62.246,73.319,62.111,73.374,61.969,73.374z M46.857,55.039L62,72.033l3.135-2.998c0.115-0.111,0.283-0.169,0.435-0.149l5.651,0.568l-1.041-5.343c-0.031-0.162,0.012-0.33,0.117-0.457l4.693-5.658L46.857,55.039z"/><path fill="#666aad" d="M71.413 69.879L67.89 66.636 45.616 54.67 70.329 63.829z"/><path fill="#472b29" d="M71.412,70.228c-0.085,0-0.17-0.03-0.237-0.092l-3.489-3.214L45.45,54.979c-0.161-0.087-0.229-0.284-0.153-0.451c0.075-0.169,0.268-0.252,0.438-0.187l25.016,9.081c0.182,0.066,0.275,0.267,0.21,0.448c-0.066,0.183-0.27,0.276-0.448,0.21l-20.477-7.434l18.021,9.68c0.025,0.014,0.05,0.031,0.071,0.051l3.522,3.243c0.142,0.131,0.151,0.353,0.021,0.495C71.601,70.19,71.507,70.228,71.412,70.228z"/><path fill="#472b29" d="M61.969 73.324c-.128 0-.256-.049-.354-.146-.195-.195-.195-.513 0-.707l5.962-5.952c.195-.195.512-.195.707 0s.195.513 0 .707l-5.962 5.952C62.225 73.275 62.097 73.324 61.969 73.324zM84.011 80.866c-.105 0-.211-.033-.301-.101-1.434-1.081-2.458-2.724-2.81-4.508-.138-.694-.149-1.344-.09-1.927-.303-.033-.609-.084-.913-.15-.271-.059-.441-.325-.382-.595.059-.27.329-.44.595-.382.293.063.586.11.875.14.147-.58.348-1.05.511-1.376.596-1.187 2.41-2.858 3.879-2.757.427.027 1.199.237 1.586 1.339.25.713.147 1.396-.296 1.978-.958 1.257-3.351 1.771-4.853 1.837-.059.512-.053 1.085.068 1.7.306 1.545 1.191 2.968 2.431 3.902.221.166.265.479.099.7C84.312 80.798 84.162 80.866 84.011 80.866zM85.25 70.207c-.957 0-2.421 1.334-2.859 2.209-.117.232-.255.552-.371.938 1.382-.1 3.218-.604 3.851-1.434.239-.313.286-.645.147-1.041-.202-.574-.499-.658-.706-.671C85.291 70.208 85.271 70.207 85.25 70.207zM78.696 73.832c-.042 0-.085-.005-.127-.017-.209-.055-1.03-.284-1.235-.35-.264-.085-.408-.366-.324-.629.085-.264.366-.405.629-.324.197.063.985.283 1.185.336.268.07.427.344.356.61C79.12 73.683 78.917 73.832 78.696 73.832zM76.338 72.965c-.073 0-.147-.016-.218-.05-.456-.221-.919-.479-1.378-.766-.234-.146-.306-.455-.159-.688.146-.235.457-.305.688-.159.43.268.861.508 1.284.713.249.121.353.42.232.668C76.702 72.861 76.524 72.965 76.338 72.965zM64.026 61.684c.191 1.087.381 2.173.572 3.26.044.253.43.146.386-.106-.191-1.087-.381-2.173-.572-3.26C64.367 61.325 63.982 61.432 64.026 61.684L64.026 61.684zM62.036 60.872c.149 1.005.297 2.011.446 3.016.037.254.423.146.386-.106-.149-1.005-.297-2.011-.446-3.016C62.385 60.512 61.999 60.619 62.036 60.872L62.036 60.872zM59.857 60.047c.177.905.354 1.81.53 2.715.049.252.435.146.386-.106-.177-.905-.354-1.81-.53-2.715C60.193 59.688 59.808 59.795 59.857 60.047L59.857 60.047zM57.551 59.205c.158.743.293 1.491.451 2.235.053.252.439.145.386-.106-.158-.743-.293-1.491-.451-2.235C57.883 58.847 57.497 58.953 57.551 59.205L57.551 59.205zM55.415 58.427c.124.585.248 1.17.371 1.755.053.252.439.145.386-.106-.124-.585-.248-1.17-.371-1.755C55.747 58.068 55.361 58.175 55.415 58.427L55.415 58.427zM52.946 57.545c.068.428.137.856.205 1.283.041.253.426.146.386-.106-.068-.428-.137-.856-.205-1.283C53.291 57.185 52.906 57.293 52.946 57.545L52.946 57.545zM66.106 62.38c.211 1.144.422 2.288.632 3.431.047.253.432.146.386-.106-.211-1.144-.422-2.288-.632-3.431C66.445 62.02 66.059 62.128 66.106 62.38L66.106 62.38zM68.31 63.108c.269 1.53.537 3.059.806 4.589.044.253.43.146.386-.106-.269-1.53-.537-3.059-.806-4.589C68.651 62.748 68.266 62.855 68.31 63.108L68.31 63.108zM73.924 71.462c-.114 0-.229-.039-.323-.118l-.325-.275c-.211-.179-.236-.494-.059-.705.18-.209.496-.234.705-.059l.325.275c.211.179.236.494.059.705C74.206 71.401 74.066 71.462 73.924 71.462z"/></g><g><path fill="#fdfcef" d="M38.017,72.867c1.883,0,3.517,0,3.54,0c2.11,0,3.821-1.674,3.821-3.739c0-1.802-1.302-3.305-3.035-3.66c0.02-0.158,0.034-0.317,0.034-0.48c0-2.139-1.772-3.873-3.957-3.873c-1.29,0-2.433,0.607-3.155,1.543c-0.185-2.381-2.358-4.218-4.9-3.913c-1.859,0.223-3.397,1.629-3.739,3.431c-0.11,0.578-0.098,1.139,0.011,1.665c-0.498-0.525-1.208-0.856-1.998-0.856c-1.446,0-2.627,1.102-2.72,2.494c-0.657-0.142-1.371-0.133-2.123,0.143c-1.438,0.528-2.462,1.853-2.522,3.356c-0.085,2.133,1.657,3.889,3.818,3.889c0.164,0,0.741,0,0.874,0h7.934 M31.54,72.867h0.36"/><path fill="#472b29" d="M41.558,73.367h-3.541c-0.276,0-0.5-0.224-0.5-0.5s0.224-0.5,0.5-0.5h3.541c1.831,0,3.32-1.453,3.32-3.239c0-1.524-1.108-2.858-2.636-3.17c-0.255-0.053-0.428-0.293-0.396-0.552c0.017-0.137,0.029-0.276,0.029-0.419c0-1.859-1.551-3.372-3.457-3.372c-1.092,0-2.098,0.491-2.76,1.348c-0.126,0.164-0.343,0.231-0.538,0.174c-0.198-0.06-0.34-0.234-0.355-0.44c-0.079-1.02-0.565-1.944-1.369-2.604c-0.83-0.681-1.888-0.982-2.974-0.853c-1.646,0.197-3.006,1.442-3.307,3.027c-0.094,0.496-0.091,0.991,0.009,1.472c0.046,0.219-0.06,0.441-0.258,0.545c-0.197,0.103-0.439,0.063-0.595-0.1c-0.428-0.451-1.009-0.7-1.635-0.7c-1.17,0-2.146,0.891-2.221,2.027c-0.01,0.146-0.082,0.278-0.198,0.366c-0.115,0.087-0.264,0.121-0.406,0.089c-0.64-0.139-1.243-0.098-1.845,0.125c-1.263,0.463-2.146,1.631-2.195,2.905c-0.035,0.876,0.282,1.709,0.895,2.346c0.635,0.66,1.495,1.024,2.423,1.024h8.808c0.276,0,0.5,0.224,0.5,0.5s-0.224,0.5-0.5,0.5H21.09c-1.185,0-2.33-0.485-3.144-1.331c-0.803-0.836-1.219-1.929-1.174-3.078c0.066-1.675,1.212-3.204,2.85-3.806c0.609-0.224,1.241-0.305,1.88-0.244c0.345-1.396,1.629-2.424,3.136-2.424c0.493,0,0.977,0.113,1.414,0.323c0.009-0.241,0.036-0.483,0.082-0.726c0.381-2.009,2.096-3.586,4.17-3.834c1.363-0.167,2.686,0.218,3.727,1.071c0.748,0.613,1.278,1.409,1.546,2.302c0.791-0.647,1.786-1.006,2.843-1.006c2.458,0,4.457,1.961,4.457,4.372c0,0.034-0.001,0.068-0.002,0.103c1.765,0.555,3.004,2.188,3.004,4.038C45.878,71.465,43.94,73.367,41.558,73.367z M31.9,73.367H31.54c-0.276,0-0.5-0.224-0.5-0.5s0.224-0.5,0.5-0.5H31.9c0.276,0,0.5,0.224,0.5,0.5S32.176,73.367,31.9,73.367z"/><path fill="#472b29" d="M39.85,67.564c-0.018,0-0.036-0.002-0.055-0.006c-0.135-0.03-0.22-0.164-0.189-0.299c0.036-0.163,0.094-0.324,0.169-0.479c0.605-1.226,2.273-1.677,3.723-1.006c0.125,0.058,0.18,0.206,0.121,0.332c-0.058,0.125-0.206,0.178-0.332,0.121c-1.2-0.556-2.577-0.211-3.062,0.773c-0.059,0.119-0.103,0.242-0.13,0.368C40.068,67.485,39.965,67.564,39.85,67.564z"/><g><path fill="#472b29" d="M34.691,73.367h-1.106c-0.276,0-0.5-0.224-0.5-0.5s0.224-0.5,0.5-0.5h1.106c0.276,0,0.5,0.224,0.5,0.5S34.967,73.367,34.691,73.367z"/></g></g></svg>